<mxfile host="app.diagrams.net" modified="2023-06-13T15:10:55.061Z" agent="Mozilla/5.0 (Windows NT 10.0; Win64; x64) AppleWebKit/537.36 (KHTML, like Gecko) Chrome/114.0.0.0 Safari/537.36" etag="Vy0KSAU5DRoAZZJtbDbD" version="21.3.8" type="device">
  <diagram name="Page-1" id="fbcf5db9-b524-4cd4-e4f3-379dc89c3999">
    <mxGraphModel dx="1195" dy="663" grid="1" gridSize="10" guides="1" tooltips="1" connect="1" arrows="1" fold="1" page="1" pageScale="1" pageWidth="850" pageHeight="1100" background="none" math="0" shadow="0">
      <root>
        <mxCell id="0" />
        <mxCell id="1" parent="0" />
        <mxCell id="2a0f93b5c73ef8e7-1" value="" style="line;strokeWidth=10;direction=south;html=1;fillColor=none;fontSize=13;fontColor=#000000;align=center;strokeColor=#AE4132;" parent="1" vertex="1">
          <mxGeometry x="360" y="100" width="10" height="1580" as="geometry" />
        </mxCell>
        <mxCell id="2a0f93b5c73ef8e7-2" value="" style="rounded=1;whiteSpace=wrap;html=1;strokeColor=none;strokeWidth=1;fillColor=#F2931E;fontSize=13;fontColor=#FFFFFF;align=center;gradientColor=none;gradientDirection=east;verticalAlign=top;shadow=1;" parent="1" vertex="1">
          <mxGeometry x="140" y="123.41" width="250" height="108.18" as="geometry" />
        </mxCell>
        <mxCell id="2a0f93b5c73ef8e7-18" value="&lt;h1&gt;2001&lt;/h1&gt;&lt;p style=&quot;text-align: justify;&quot;&gt;&lt;font style=&quot;font-size: 11px;&quot;&gt;Pierre Garçon is involved in the European EDIT and ECODIS projects on the traceability of hazardous substances and environmental data.&lt;/font&gt;&lt;/p&gt;" style="text;html=1;spacing=5;spacingTop=-20;whiteSpace=wrap;overflow=hidden;strokeColor=none;strokeWidth=4;fillColor=none;gradientColor=#007FFF;fontSize=9;fontColor=#FFFFFF;align=center;" parent="1" vertex="1">
          <mxGeometry x="165" y="123.41" width="200" height="95" as="geometry" />
        </mxCell>
        <mxCell id="uyJvWSItxsUcb6-8R9vu-2" value="" style="rounded=1;whiteSpace=wrap;html=1;strokeColor=none;strokeWidth=1;fillColor=#10739e;fontSize=13;fontColor=#FFFFFF;align=center;gradientColor=none;gradientDirection=east;verticalAlign=top;shadow=1;" vertex="1" parent="1">
          <mxGeometry x="310" y="240" width="280" height="160" as="geometry" />
        </mxCell>
        <mxCell id="2a0f93b5c73ef8e7-19" value="&lt;h1&gt;2007&lt;/h1&gt;&lt;p style=&quot;text-align: justify; font-size: 11px;&quot;&gt;&lt;font style=&quot;font-size: 11px;&quot;&gt;REACH regulation comes into force: Europe implements measures to guarantee a high level of protection for all against substance-related risks.&lt;/font&gt;&lt;/p&gt;&lt;p style=&quot;text-align: justify; font-size: 11px;&quot;&gt;&lt;font style=&quot;font-size: 11px;&quot;&gt;Pierre Garçon and Jean-Raphaël Miron join forces to found EcoMundo. Initial core business: REACH compliance.&lt;/font&gt;&lt;/p&gt;" style="text;html=1;spacing=5;spacingTop=-20;whiteSpace=wrap;overflow=hidden;strokeColor=none;strokeWidth=4;fillColor=none;gradientColor=#007FFF;fontSize=9;fontColor=#FFFFFF;align=center;" parent="1" vertex="1">
          <mxGeometry x="332.5" y="240" width="235" height="170" as="geometry" />
        </mxCell>
        <mxCell id="uyJvWSItxsUcb6-8R9vu-3" value="" style="rounded=1;whiteSpace=wrap;html=1;strokeColor=none;strokeWidth=1;fillColor=#F2931E;fontSize=13;fontColor=#FFFFFF;align=center;gradientColor=none;gradientDirection=east;verticalAlign=top;shadow=1;" vertex="1" parent="1">
          <mxGeometry x="130" y="420" width="250" height="108.18" as="geometry" />
        </mxCell>
        <mxCell id="uyJvWSItxsUcb6-8R9vu-4" value="&lt;h1&gt;2010&lt;/h1&gt;&lt;p style=&quot;text-align: justify;&quot;&gt;&lt;font style=&quot;font-size: 11px;&quot;&gt;After 2 years of development, launch of SaaS software solutions dedicated to manufacturers, for REACH compliance management.&lt;/font&gt;&lt;/p&gt;" style="text;html=1;spacing=5;spacingTop=-20;whiteSpace=wrap;overflow=hidden;strokeColor=none;strokeWidth=4;fillColor=none;gradientColor=#007FFF;fontSize=9;fontColor=#FFFFFF;align=center;" vertex="1" parent="1">
          <mxGeometry x="155" y="420" width="200" height="95" as="geometry" />
        </mxCell>
        <mxCell id="uyJvWSItxsUcb6-8R9vu-5" value="" style="rounded=1;whiteSpace=wrap;html=1;strokeColor=none;strokeWidth=1;fillColor=#10739e;fontSize=13;fontColor=#FFFFFF;align=center;gradientColor=none;gradientDirection=east;verticalAlign=top;shadow=1;" vertex="1" parent="1">
          <mxGeometry x="320" y="540" width="280" height="100" as="geometry" />
        </mxCell>
        <mxCell id="uyJvWSItxsUcb6-8R9vu-6" value="&lt;h1&gt;&lt;span style=&quot;background-color: initial;&quot;&gt;2011&lt;/span&gt;&lt;/h1&gt;&lt;h1 style=&quot;text-align: justify;&quot;&gt;&lt;font style=&quot;font-weight: normal; font-size: 13px;&quot;&gt;EcoMundo teams grow from 2 to 27 employees&lt;/font&gt;&lt;br&gt;&lt;/h1&gt;" style="text;html=1;spacing=5;spacingTop=-20;whiteSpace=wrap;overflow=hidden;strokeColor=none;strokeWidth=4;fillColor=none;gradientColor=#007FFF;fontSize=9;fontColor=#FFFFFF;align=center;" vertex="1" parent="1">
          <mxGeometry x="340" y="540" width="235" height="80" as="geometry" />
        </mxCell>
        <mxCell id="uyJvWSItxsUcb6-8R9vu-7" value="" style="rounded=1;whiteSpace=wrap;html=1;strokeColor=none;strokeWidth=1;fillColor=#F2931E;fontSize=13;fontColor=#FFFFFF;align=center;gradientColor=none;gradientDirection=east;verticalAlign=top;shadow=1;" vertex="1" parent="1">
          <mxGeometry x="130" y="660" width="250" height="100" as="geometry" />
        </mxCell>
        <mxCell id="uyJvWSItxsUcb6-8R9vu-8" value="&lt;h1 style=&quot;text-align: justify;&quot;&gt;&lt;span style=&quot;font-size: 11px; font-weight: normal; background-color: initial;&quot;&gt;Opening of a new office in Vancouver, Canada, to bring our regulatory expertise to international companies.&lt;/span&gt;&lt;br&gt;&lt;/h1&gt;" style="text;html=1;spacing=5;spacingTop=-20;whiteSpace=wrap;overflow=hidden;strokeColor=none;strokeWidth=4;fillColor=none;gradientColor=#007FFF;fontSize=9;fontColor=#FFFFFF;align=center;" vertex="1" parent="1">
          <mxGeometry x="155" y="680" width="200" height="73.41" as="geometry" />
        </mxCell>
        <mxCell id="uyJvWSItxsUcb6-8R9vu-10" value="&lt;h1&gt;&lt;span style=&quot;background-color: initial;&quot;&gt;2012&lt;/span&gt;&lt;/h1&gt;" style="text;html=1;spacing=5;spacingTop=-20;whiteSpace=wrap;overflow=hidden;strokeColor=none;strokeWidth=4;fillColor=none;gradientColor=#007FFF;fontSize=9;fontColor=#FFFFFF;align=center;" vertex="1" parent="1">
          <mxGeometry x="226.25" y="660" width="57.5" height="20" as="geometry" />
        </mxCell>
        <mxCell id="uyJvWSItxsUcb6-8R9vu-11" value="" style="rounded=1;whiteSpace=wrap;html=1;strokeColor=none;strokeWidth=1;fillColor=#10739e;fontSize=13;fontColor=#FFFFFF;align=center;gradientColor=none;gradientDirection=east;verticalAlign=top;shadow=1;" vertex="1" parent="1">
          <mxGeometry x="325" y="780" width="250" height="110" as="geometry" />
        </mxCell>
        <mxCell id="uyJvWSItxsUcb6-8R9vu-12" value="&lt;h1 style=&quot;text-align: justify; font-size: 11px;&quot;&gt;&lt;span style=&quot;font-weight: normal;&quot;&gt;EcoMundo is diversifying its areas of regulatory expertise to meet the industry&#39;s new needs arising from the European Cosmetics and Biocides regulations.&lt;/span&gt;&lt;br&gt;&lt;/h1&gt;" style="text;html=1;spacing=5;spacingTop=-20;whiteSpace=wrap;overflow=hidden;strokeColor=none;strokeWidth=4;fillColor=none;gradientColor=#007FFF;fontSize=9;fontColor=#FFFFFF;align=center;" vertex="1" parent="1">
          <mxGeometry x="345" y="810" width="210" height="73.41" as="geometry" />
        </mxCell>
        <mxCell id="uyJvWSItxsUcb6-8R9vu-13" value="&lt;h1&gt;&lt;span style=&quot;background-color: initial;&quot;&gt;2013&lt;/span&gt;&lt;/h1&gt;" style="text;html=1;spacing=5;spacingTop=-20;whiteSpace=wrap;overflow=hidden;strokeColor=none;strokeWidth=4;fillColor=none;gradientColor=#007FFF;fontSize=9;fontColor=#FFFFFF;align=center;" vertex="1" parent="1">
          <mxGeometry x="421.25" y="780" width="57.5" height="20" as="geometry" />
        </mxCell>
        <mxCell id="uyJvWSItxsUcb6-8R9vu-14" value="" style="rounded=1;whiteSpace=wrap;html=1;strokeColor=none;strokeWidth=1;fillColor=#F2931E;fontSize=13;fontColor=#FFFFFF;align=center;gradientColor=none;gradientDirection=east;verticalAlign=top;shadow=1;" vertex="1" parent="1">
          <mxGeometry x="140" y="900" width="250" height="100" as="geometry" />
        </mxCell>
        <mxCell id="uyJvWSItxsUcb6-8R9vu-15" value="&lt;h1 style=&quot;text-align: justify; font-size: 11px;&quot;&gt;&lt;span style=&quot;font-weight: normal;&quot;&gt;EcoMundo expands its capabilities to become one of Europe&#39;s leading players in REACH authorization dossiers.&lt;/span&gt;&lt;br&gt;&lt;/h1&gt;" style="text;html=1;spacing=5;spacingTop=-20;whiteSpace=wrap;overflow=hidden;strokeColor=none;strokeWidth=4;fillColor=none;gradientColor=#007FFF;fontSize=9;fontColor=#FFFFFF;align=center;" vertex="1" parent="1">
          <mxGeometry x="165" y="930" width="200" height="73.41" as="geometry" />
        </mxCell>
        <mxCell id="uyJvWSItxsUcb6-8R9vu-16" value="&lt;h1&gt;&lt;span style=&quot;background-color: initial;&quot;&gt;2014&lt;/span&gt;&lt;/h1&gt;" style="text;html=1;spacing=5;spacingTop=-20;whiteSpace=wrap;overflow=hidden;strokeColor=none;strokeWidth=4;fillColor=none;gradientColor=#007FFF;fontSize=9;fontColor=#FFFFFF;align=center;" vertex="1" parent="1">
          <mxGeometry x="236.25" y="900" width="57.5" height="20" as="geometry" />
        </mxCell>
        <mxCell id="uyJvWSItxsUcb6-8R9vu-20" value="" style="rounded=1;whiteSpace=wrap;html=1;strokeColor=none;strokeWidth=1;fillColor=#10739e;fontSize=13;fontColor=#FFFFFF;align=center;gradientColor=none;gradientDirection=east;verticalAlign=top;shadow=1;" vertex="1" parent="1">
          <mxGeometry x="340" y="1020" width="250" height="100" as="geometry" />
        </mxCell>
        <mxCell id="uyJvWSItxsUcb6-8R9vu-21" value="&lt;h1 style=&quot;text-align: justify; font-size: 11px;&quot;&gt;&lt;span style=&quot;font-weight: normal;&quot;&gt;Launch of the COSMETIC Factory software solution, revolutionizing cosmetics regulatory management. In particular, it automates DIP creation.&lt;/span&gt;&lt;br&gt;&lt;/h1&gt;" style="text;html=1;spacing=5;spacingTop=-20;whiteSpace=wrap;overflow=hidden;strokeColor=none;strokeWidth=4;fillColor=none;gradientColor=#007FFF;fontSize=9;fontColor=#FFFFFF;align=center;" vertex="1" parent="1">
          <mxGeometry x="355" y="1050" width="200" height="73.41" as="geometry" />
        </mxCell>
        <mxCell id="uyJvWSItxsUcb6-8R9vu-22" value="&lt;h1&gt;&lt;span style=&quot;background-color: initial;&quot;&gt;2016&lt;/span&gt;&lt;/h1&gt;" style="text;html=1;spacing=5;spacingTop=-20;whiteSpace=wrap;overflow=hidden;strokeColor=none;strokeWidth=4;fillColor=none;gradientColor=#007FFF;fontSize=9;fontColor=#FFFFFF;align=center;" vertex="1" parent="1">
          <mxGeometry x="426.25" y="1020" width="57.5" height="20" as="geometry" />
        </mxCell>
        <mxCell id="uyJvWSItxsUcb6-8R9vu-23" value="" style="rounded=1;whiteSpace=wrap;html=1;strokeColor=none;strokeWidth=1;fillColor=#f2931e;fontSize=13;fontColor=#FFFFFF;align=center;gradientColor=none;gradientDirection=east;verticalAlign=top;shadow=1;" vertex="1" parent="1">
          <mxGeometry x="140" y="1130" width="250" height="110" as="geometry" />
        </mxCell>
        <mxCell id="uyJvWSItxsUcb6-8R9vu-24" value="&lt;h1 style=&quot;text-align: justify;&quot;&gt;&lt;span style=&quot;font-weight: normal;&quot;&gt;&lt;font style=&quot;font-size: 11px;&quot;&gt;EcoMundo raises its capital to 1 million euros. The number of employees continues to grow!&lt;/font&gt;&lt;/span&gt;&lt;br&gt;&lt;/h1&gt;" style="text;html=1;spacing=5;spacingTop=-20;whiteSpace=wrap;overflow=hidden;strokeColor=none;strokeWidth=4;fillColor=none;gradientColor=#007FFF;fontSize=9;fontColor=#FFFFFF;align=center;" vertex="1" parent="1">
          <mxGeometry x="160" y="1160" width="210" height="73.41" as="geometry" />
        </mxCell>
        <mxCell id="uyJvWSItxsUcb6-8R9vu-25" value="&lt;h1&gt;&lt;span style=&quot;background-color: initial;&quot;&gt;2017&lt;/span&gt;&lt;/h1&gt;" style="text;html=1;spacing=5;spacingTop=-20;whiteSpace=wrap;overflow=hidden;strokeColor=none;strokeWidth=4;fillColor=none;gradientColor=#007FFF;fontSize=9;fontColor=#FFFFFF;align=center;" vertex="1" parent="1">
          <mxGeometry x="236.25" y="1130" width="57.5" height="20" as="geometry" />
        </mxCell>
        <mxCell id="uyJvWSItxsUcb6-8R9vu-26" value="" style="rounded=1;whiteSpace=wrap;html=1;strokeColor=none;strokeWidth=1;fillColor=#10709a;fontSize=13;fontColor=#FFFFFF;align=center;gradientColor=none;gradientDirection=east;verticalAlign=top;shadow=1;" vertex="1" parent="1">
          <mxGeometry x="340" y="1270" width="250" height="130" as="geometry" />
        </mxCell>
        <mxCell id="uyJvWSItxsUcb6-8R9vu-27" value="&lt;h1 style=&quot;text-align: justify;&quot;&gt;&lt;span style=&quot;font-weight: normal;&quot;&gt;&lt;font style=&quot;font-size: 11px;&quot;&gt;Opening of a new branch in Seoul, South Korea, mainly dedicated to cosmetics. The Vancouver office is transferred to Montreal, Canada.&lt;/font&gt;&lt;/span&gt;&lt;br&gt;&lt;/h1&gt;" style="text;html=1;spacing=5;spacingTop=-20;whiteSpace=wrap;overflow=hidden;strokeColor=none;strokeWidth=4;fillColor=none;gradientColor=#007FFF;fontSize=9;fontColor=#FFFFFF;align=center;" vertex="1" parent="1">
          <mxGeometry x="365" y="1290" width="200" height="100" as="geometry" />
        </mxCell>
        <mxCell id="uyJvWSItxsUcb6-8R9vu-28" value="&lt;h1&gt;&lt;span style=&quot;background-color: initial;&quot;&gt;2018&lt;/span&gt;&lt;/h1&gt;" style="text;html=1;spacing=5;spacingTop=-20;whiteSpace=wrap;overflow=hidden;strokeColor=none;strokeWidth=4;fillColor=none;gradientColor=#007FFF;fontSize=9;fontColor=#FFFFFF;align=center;" vertex="1" parent="1">
          <mxGeometry x="436.25" y="1270" width="57.5" height="20" as="geometry" />
        </mxCell>
        <mxCell id="uyJvWSItxsUcb6-8R9vu-29" value="" style="rounded=1;whiteSpace=wrap;html=1;strokeColor=none;strokeWidth=1;fillColor=#f2931e;fontSize=13;fontColor=#FFFFFF;align=center;gradientColor=none;gradientDirection=east;verticalAlign=top;shadow=1;" vertex="1" parent="1">
          <mxGeometry x="140" y="1410" width="250" height="110" as="geometry" />
        </mxCell>
        <mxCell id="uyJvWSItxsUcb6-8R9vu-30" value="&lt;h1 style=&quot;text-align: justify;&quot;&gt;&lt;span style=&quot;font-weight: normal;&quot;&gt;&lt;font style=&quot;font-size: 14px;&quot;&gt;Opening of a new branch in Barcelona, Spain.&lt;/font&gt;&lt;/span&gt;&lt;br&gt;&lt;/h1&gt;" style="text;html=1;spacing=5;spacingTop=-20;whiteSpace=wrap;overflow=hidden;strokeColor=none;strokeWidth=4;fillColor=none;gradientColor=#007FFF;fontSize=9;fontColor=#FFFFFF;align=center;" vertex="1" parent="1">
          <mxGeometry x="160" y="1440" width="210" height="73.41" as="geometry" />
        </mxCell>
        <mxCell id="uyJvWSItxsUcb6-8R9vu-31" value="&lt;h1&gt;&lt;span style=&quot;background-color: initial;&quot;&gt;2019&lt;/span&gt;&lt;/h1&gt;" style="text;html=1;spacing=5;spacingTop=-20;whiteSpace=wrap;overflow=hidden;strokeColor=none;strokeWidth=4;fillColor=none;gradientColor=#007FFF;fontSize=9;fontColor=#FFFFFF;align=center;" vertex="1" parent="1">
          <mxGeometry x="236.25" y="1410" width="57.5" height="20" as="geometry" />
        </mxCell>
        <mxCell id="uyJvWSItxsUcb6-8R9vu-32" value="" style="rounded=1;whiteSpace=wrap;html=1;strokeColor=none;strokeWidth=1;fillColor=#10709a;fontSize=13;fontColor=#FFFFFF;align=center;gradientColor=none;gradientDirection=east;verticalAlign=top;shadow=1;" vertex="1" parent="1">
          <mxGeometry x="345" y="1530" width="250" height="160" as="geometry" />
        </mxCell>
        <mxCell id="uyJvWSItxsUcb6-8R9vu-33" value="&lt;h1 style=&quot;text-align: justify; font-size: 11px;&quot;&gt;&lt;font style=&quot;font-size: 11px; font-weight: normal;&quot;&gt;Opening of a subsidiary in London, UK.&amp;nbsp;&lt;/font&gt;&lt;/h1&gt;&lt;h1 style=&quot;text-align: justify; font-size: 11px;&quot;&gt;&lt;span style=&quot;font-weight: 400;&quot;&gt;&lt;font style=&quot;font-size: 11px;&quot;&gt;The teams now consist of 43 employees in Paris, 3 in Montreal, 4 in Seoul and 2 in Barcelona. Lastly, the Paris offices undergo a facelift to provide employees with a setting in keeping with our values.&lt;/font&gt;&lt;/span&gt;&lt;/h1&gt;" style="text;html=1;spacing=5;spacingTop=-20;whiteSpace=wrap;overflow=hidden;strokeColor=none;strokeWidth=4;fillColor=none;gradientColor=#007FFF;fontSize=9;fontColor=#FFFFFF;align=center;" vertex="1" parent="1">
          <mxGeometry x="370" y="1565" width="200" height="130" as="geometry" />
        </mxCell>
        <mxCell id="uyJvWSItxsUcb6-8R9vu-34" value="&lt;h1&gt;&lt;span style=&quot;background-color: initial;&quot;&gt;2020&lt;/span&gt;&lt;/h1&gt;" style="text;html=1;spacing=5;spacingTop=-20;whiteSpace=wrap;overflow=hidden;strokeColor=none;strokeWidth=4;fillColor=none;gradientColor=#007FFF;fontSize=9;fontColor=#FFFFFF;align=center;" vertex="1" parent="1">
          <mxGeometry x="441.25" y="1530" width="57.5" height="20" as="geometry" />
        </mxCell>
      </root>
    </mxGraphModel>
  </diagram>
</mxfile>
